# xmcd CD database file
#
# Track frame offsets:
#	150
#	13905
#	25642
#	37657
#	49512
#	65132
#	77970
#	93597
#	104882
#	115155
#	126865
#	139397
#	151217
#	164257
#	177037
#	188647
#	201410
#	210472
#	221447
#	233390
#	256185
#	269570
#	284602
#
# Disc length: 3971 seconds
#
# Revision: 0
# Processed by: cddbd v1.5.2PL0 Copyright (c) Steve Scherf et al.
# Submitted via: CdAid (MTCDDB.DLL V2003.12.21)
#
DISCID=4a0f8117
DTITLE=Various Artist - Soulful Stuff
DYEAR=1988
DGENRE=Soul
TTITLE0=Am I The Same Girl - Barbara Acklin 
TTITLE1=Oh No Not MY Baby - Maxine Brown
TTITLE2=Baby It's You - The Shirelles
TTITLE3=I'm Gonna Miss You - Artistics
TTITLE4=Saving My Love For You - Erma Franklin
TTITLE5=I Just Don't Know What To Do With Myself - Tommy Hunt
TTITLE6=Just As Long As You Need ME Part 1 - The Independents
TTITLE7=Love Uprising - Otis Leavill
TTITLE8=I'm The One To Do It - Lavern Baker
TTITLE9=I Keep Forgettin' - Chuck Jackson
TTITLE10=Turn Back The Hands Of Time - Tyrone Davis
TTITLE11=Lonely Teardrops - Jackie Wilson
TTITLE12=Can't Get Enough - Irma Thomas
TTITLE13=Love Makes a Woman - Barbara Acklin
TTITLE14=Can't Get You Off My Mind - Diplomats
TTITLE15=Since I Found You - Maxine Brown
TTITLE16=Put Yourself In My Place - Big Maybelle
TTITLE17=Make The Night A Little Longer - Tommy Hunt
TTITLE18=The Girl Don't Care - Gene Chandler
TTITLE19=Have You Seen Her - The Chi-Lites
TTITLE20=The Sly, The Slick And THe Wicked - Lost Generastion
TTITLE21=Any Day Now - Chuck Jackson
TTITLE22=Soulful Strut - Young Holt Unlimited
EXTD=66 Minutes of Superb 60s Soul Sounds ID3G:  42 YEAR: 1988
EXTT0=
EXTT1=
EXTT2=
EXTT3=
EXTT4=
EXTT5=
EXTT6=
EXTT7=
EXTT8=
EXTT9=
EXTT10=
EXTT11=
EXTT12=
EXTT13=
EXTT14=
EXTT15=
EXTT16=
EXTT17=
EXTT18=
EXTT19=
EXTT20=
EXTT21=
EXTT22=
PLAYORDER=
